<svg id="Capa_1" enable-background="new 0 0 512.073 512.073" height="512" viewBox="0 0 512.073 512.073" width="512" xmlns="http://www.w3.org/2000/svg"><g><path d="m256.037 10.778c-2.652-3.615-5.016-7.378-8.072-10.778l-22.324 20.068c34.409 38.262 35.947 95.303 3.677 135.63l23.438 18.75c1.258-1.573 2.102-3.333 3.281-4.944 34.973-47.827 34.594-111.571 0-158.726z" fill="#474f54"/><path d="m256.037 10.778v158.727c34.973-47.828 34.594-111.572 0-158.727z" fill="#32393f"/><path d="m406.037 150.073h-150-150c-58.872 0-106 80.072-106 181s47.128 181 106 181c43.11 0 80.112-42.675 96.577-109.75 1.611-6.621 7.529-11.25 14.385-11.25h39.038 39.038c6.855 0 12.773 4.629 14.399 11.25 16.45 67.075 53.452 109.75 96.563 109.75 58.872 0 106-80.072 106-181s-47.128-181-106-181z" fill="#474f54"/><path d="m309.474 402.323c16.45 67.075 53.452 109.75 96.563 109.75 58.872 0 106-80.072 106-181s-47.128-181-106-181h-150v241h39.038c6.855 0 12.773 4.629 14.399 11.25z" fill="#32393f"/><path d="m181.037 271.073h-30v-30h-30v30h-30v30h30v30h30v-30h30z" fill="#c6e2e7"/><path d="m376.037 331.073c-24.814 0-45-20.186-45-45s20.186-45 45-45 45 20.186 45 45-20.186 45-45 45z" fill="#ff641a"/></g></svg>